<svg id="Camada_1" data-name="Camada 1" xmlns="http://www.w3.org/2000/svg" viewBox="0 0 713 267"><defs><style>.cls-1{fill:#f37920;}.cls-2{fill:#00508e;}</style></defs><title>Prancheta 1</title><path class="cls-1" d="M145,10H130a15.57,15.57,0,0,0-15.5,15.52V43a15.06,15.06,0,0,0,.13,2.09c-.26,6.62-1.91,8.92-4.36,10.64-2.83,2.44-7.56,3.61-11.31,3.78H78.53A15.55,15.55,0,0,0,63,74.65a15.48,15.48,0,0,0-.44,3.68v15a15.56,15.56,0,0,0,15.5,15.52H98.5c3.74.15,8.46,1.34,11.32,3.76,2.44,1.74,4.09,4,4.35,10.65a13.51,13.51,0,0,0-.15,2.09v17.42a15.57,15.57,0,0,0,15.53,15.52h22.32c3.76.16,8.47,1.33,11.32,3.77,2.42,1.74,4.09,4,4.35,10.64a16.26,16.26,0,0,0-.15,2.1v17.4a15.53,15.53,0,0,0,.45,3.71c-.34,6.08-2,8.26-4.3,9.93-2.85,2.42-7.57,3.63-11.32,3.77H131.78l-.81,0h-.9a17.11,17.11,0,0,0-1.74.08h-5.39a15.56,15.56,0,0,1-15.53-15.31h-.19l0-.78v-6.39h0v-8.92A15.57,15.57,0,0,0,93,162.87H91.83l-.94,0H78.53A15.58,15.58,0,0,0,63,178.34v15A15.58,15.58,0,0,0,78.53,208.9H98.95c3.75.15,8.48,1.33,11.31,3.77,2.45,1.71,4.1,4,4.36,10.64a15.18,15.18,0,0,0-.13,2.09v17.43A15.56,15.56,0,0,0,130,258.34H145a15.59,15.59,0,0,0,15.54-15.51V225.4l0-.68v-.08l0-.54h.16a15.57,15.57,0,0,1,15.53-15.31h5.39a17.53,17.53,0,0,0,1.77.08h14.17a15.92,15.92,0,0,0,4.77-.73,15.65,15.65,0,0,0,11.54-15V175.7a15.24,15.24,0,0,0-1.21-6l0,0a15.68,15.68,0,0,0-10.67-9.87,15.21,15.21,0,0,0-4.75-.76H183a16.63,16.63,0,0,0-1.72.11h-5.43a15.55,15.55,0,0,1-15.5-15.31h-.17l0-.79v-6.38h0v-8.93l-.05-1.2v-1.16a15.62,15.62,0,0,0-11.53-15,16.18,16.18,0,0,0-4.77-.75H129.62c-.6,0-1.15,0-1.73.09h-5.41A15.56,15.56,0,0,1,107.3,97.44h0V89.7h0V81.12h0v-6.4l0-.77h.19a15.57,15.57,0,0,1,15.53-15.31h5.39a17.2,17.2,0,0,0,1.74.11h22.17c3.75.15,8.46,1.34,11.32,3.78,2.42,1.73,4.07,4,4.34,10.62a17.7,17.7,0,0,0-.14,2.1V92.68a15.55,15.55,0,0,0,15.52,15.52h15a15.55,15.55,0,0,0,15.52-15.52V75.26a16.46,16.46,0,0,0-16.3-15.75H183.37c-.6,0-1.18,0-1.77.08h-5.39A15.55,15.55,0,0,1,160.68,44.3h-.16l0-.53v-.1l0-.69V25.56A15.6,15.6,0,0,0,145,10"/><path class="cls-1" d="M45.72,109.49H30a15.37,15.37,0,0,0-15.34,15.33v17.65A15.37,15.37,0,0,0,30,157.78H45.72a15.37,15.37,0,0,0,15.34-15.32V124.81a15.38,15.38,0,0,0-15.34-15.33"/><path class="cls-1" d="M697.27,92.48a8.06,8.06,0,1,1-8-7.84,7.89,7.89,0,0,1,8,7.84m-14.09,0a6.09,6.09,0,0,0,6.11,6.25,6,6,0,0,0,6-6.22,6,6,0,1,0-12.08,0m4.81,4h-1.82V88.7a19.83,19.83,0,0,1,3-.23,4.17,4.17,0,0,1,2.68.62,2,2,0,0,1,.8,1.67,2,2,0,0,1-1.6,1.86v.1c.75.24,1.12.86,1.37,1.91a6.16,6.16,0,0,0,.58,1.9h-1.91a6,6,0,0,1-.63-1.9c-.15-.82-.62-1.2-1.62-1.2H688Zm0-4.38h.87c1,0,1.82-.34,1.82-1.15s-.53-1.19-1.68-1.19l-1,.11Z"/><path class="cls-1" d="M259.33,166.09h24q.36,7.09,5.29,10.59,5.3,3.54,14.13,3.54a22.75,22.75,0,0,0,10.94-2.47q4.24-2.46,4.23-6.71,0-6.35-14.82-9.54a67.73,67.73,0,0,1-9.53-2.11q-18.72-4.59-25.08-10.94-7.07-6.35-7.05-17a28.13,28.13,0,0,1,10.24-22.24q10.6-8.13,27.56-8.13,18.35,0,29.3,8.13,10.23,8.82,10.94,23H324.3a11.24,11.24,0,0,1-10.24-6l-2.82-2.82c-2.83-2.14-6.71-3.19-11.66-3.19-4.72,0-8.25.72-10.59,2.11a7.15,7.15,0,0,0-3.18,6.37q0,5.63,18.36,9.53a32.63,32.63,0,0,0,3.71,1.05,13.3,13.3,0,0,0,3,.36q18,4.6,25.08,10.6,6.69,6.35,6.71,16.95,0,15.53-11.3,24-10.6,7.77-31.78,7.77-20.12,0-30-8.13-10.26-8.13-10.24-23.66v-1.06"/><path class="cls-1" d="M350.26,103.25H363a12.06,12.06,0,0,1,12,12v81.92H350.26V103.25"/><path class="cls-1" d="M382.59,166.09h24q.36,7.09,5.29,10.59,5.31,3.54,14.12,3.54A22.74,22.74,0,0,0,437,177.75c2.84-1.64,4.23-3.88,4.23-6.71q0-6.35-14.82-9.54a67.73,67.73,0,0,1-9.53-2.11q-18.72-4.59-25.08-10.94-7.07-6.35-7.06-17a28.13,28.13,0,0,1,10.24-22.24q10.6-8.13,27.56-8.13,18.35,0,29.3,8.13,10.23,8.82,10.94,23H447.57a11.24,11.24,0,0,1-10.25-6l-2.83-2.82c-2.82-2.14-6.71-3.19-11.65-3.19-4.71,0-8.25.72-10.6,2.11a7.15,7.15,0,0,0-3.18,6.37q0,5.63,18.36,9.53a32.63,32.63,0,0,0,3.71,1.05,13.3,13.3,0,0,0,3,.36q18,4.6,25.08,10.6,6.69,6.35,6.71,16.95,0,15.53-11.3,24-10.59,7.77-31.78,7.77-20.13,0-30-8.13-10.26-8.13-10.24-23.66v-1.06"/><path class="cls-1" d="M474.59,75.71H487.3a11.86,11.86,0,0,1,8.47,3.36,11,11,0,0,1,3.54,8.28V197.17H474.59V75.71"/><path class="cls-1" d="M521.74,188.69q-7.43-6.35-10.59-17.11A79.06,79.06,0,0,1,508,149.14a71,71,0,0,1,2.66-19.07,39.28,39.28,0,0,1,8.3-15.89,36.65,36.65,0,0,1,23.66-12.53q14.49-1.94,26.12,2.29a36,36,0,0,1,19.79,18.36q6,11.66,6,27.2A67.61,67.61,0,0,1,592,168.93a49.54,49.54,0,0,1-6.36,13.76q-8.47,11.66-21.54,14.48a48,48,0,0,1-23.49.53c-7.88-1.77-14.18-4.76-18.88-9m16.95-62.14q-7.41,8.12-6.71,24.18t6,22.43c1.42,1.88,3.89,3.48,7.42,4.77a16.85,16.85,0,0,0,10.76.33q5.48-1.58,9.72-7.93t4.59-20.49c0-8.49-1.35-14.82-4.06-19.07s-5.83-6.94-9.36-8.13a17.18,17.18,0,0,0-10.58-.17Q541.15,124.08,538.69,126.55Z"/><path class="cls-1" d="M668.82,168.22h17.65q-3.9,14.84-14.83,22.59-10.95,8.12-27.54,8.13-20.12,0-31.43-13.07-11.3-12.72-11.3-36.37,0-22.6,10.95-35.32,11.3-13.05,31.43-13.06,21.17,0,32.83,12.72a48.67,48.67,0,0,1,9.19,18H661a20.75,20.75,0,0,0-3.53-5.31c-3.06-3.28-7.42-4.95-13.07-4.95a17.27,17.27,0,0,0-12.72,4.95q-6.34,7.07-6.35,23.31t6.35,22.95c3.07,3.77,7.65,5.66,13.78,5.66A20,20,0,0,0,655.75,176a5,5,0,0,0,2-1.24c.57-.6,1.23-1.22,1.93-1.95a15.93,15.93,0,0,1,2.83-2.82c1.42-1.16,3.53-1.76,6.35-1.76"/><path class="cls-1" d="M366.81,69.45h-8.36a8.21,8.21,0,0,0-8.17,8.17V87a8.19,8.19,0,0,0,8.17,8.14h8.36A8.18,8.18,0,0,0,375,87V77.62a8.21,8.21,0,0,0-8.16-8.17"/><path class="cls-2" d="M145,10H130a15.57,15.57,0,0,0-15.5,15.52V43a15.06,15.06,0,0,0,.13,2.09c-.26,6.62-1.91,8.92-4.36,10.64-2.83,2.44-7.56,3.61-11.31,3.78H78.53A15.55,15.55,0,0,0,63,74.65a15.48,15.48,0,0,0-.44,3.68v15a15.56,15.56,0,0,0,15.5,15.52H98.5c3.74.15,8.46,1.34,11.32,3.76,2.44,1.74,4.09,4,4.35,10.65a13.51,13.51,0,0,0-.15,2.09v17.42a15.57,15.57,0,0,0,15.53,15.52h22.32c3.76.16,8.47,1.33,11.32,3.77,2.42,1.74,4.09,4,4.35,10.64a16.26,16.26,0,0,0-.15,2.1v17.4a15.53,15.53,0,0,0,.45,3.71c-.34,6.08-2,8.26-4.3,9.93-2.85,2.42-7.57,3.63-11.32,3.77H131.78l-.81,0h-.9a17.11,17.11,0,0,0-1.74.08h-5.39a15.56,15.56,0,0,1-15.53-15.31h-.19l0-.78v-6.39h0v-8.92A15.57,15.57,0,0,0,93,162.87H91.83l-.94,0H78.53A15.58,15.58,0,0,0,63,178.34v15A15.58,15.58,0,0,0,78.53,208.9H98.95c3.75.15,8.48,1.33,11.31,3.77,2.45,1.71,4.1,4,4.36,10.64a15.18,15.18,0,0,0-.13,2.09v17.43A15.56,15.56,0,0,0,130,258.34H145a15.59,15.59,0,0,0,15.54-15.51V225.4l0-.68v-.08l0-.54h.16a15.57,15.57,0,0,1,15.53-15.31h5.39a17.53,17.53,0,0,0,1.77.08h14.17a15.92,15.92,0,0,0,4.77-.73,15.65,15.65,0,0,0,11.54-15V175.7a15.24,15.24,0,0,0-1.21-6l0,0a15.68,15.68,0,0,0-10.67-9.87,15.21,15.21,0,0,0-4.75-.76H183a16.63,16.63,0,0,0-1.72.11h-5.43a15.55,15.55,0,0,1-15.5-15.31h-.17l0-.79v-6.38h0v-8.93l-.05-1.2v-1.16a15.62,15.62,0,0,0-11.53-15,16.18,16.18,0,0,0-4.77-.75H129.62c-.6,0-1.15,0-1.73.09h-5.41A15.56,15.56,0,0,1,107.3,97.44h0V89.7h0V81.12h0v-6.4l0-.77h.19a15.57,15.57,0,0,1,15.53-15.31h5.39a17.2,17.2,0,0,0,1.74.11h22.17c3.75.15,8.46,1.34,11.32,3.78,2.42,1.73,4.07,4,4.34,10.62a17.7,17.7,0,0,0-.14,2.1V92.68a15.55,15.55,0,0,0,15.52,15.52h15a15.55,15.55,0,0,0,15.52-15.52V75.26a16.46,16.46,0,0,0-16.3-15.75H183.37c-.6,0-1.18,0-1.77.08h-5.39A15.55,15.55,0,0,1,160.68,44.3h-.16l0-.53v-.1l0-.69V25.56A15.6,15.6,0,0,0,145,10"/><path class="cls-1" d="M45.72,109.49H30a15.37,15.37,0,0,0-15.34,15.33v17.65A15.37,15.37,0,0,0,30,157.78H45.72a15.37,15.37,0,0,0,15.34-15.32V124.81a15.38,15.38,0,0,0-15.34-15.33"/><path class="cls-2" d="M697.27,92.48a8.06,8.06,0,1,1-8-7.84,7.89,7.89,0,0,1,8,7.84m-14.09,0a6.09,6.09,0,0,0,6.11,6.25,6,6,0,0,0,6-6.22,6,6,0,1,0-12.08,0m4.81,4h-1.82V88.7a19.83,19.83,0,0,1,3-.23,4.17,4.17,0,0,1,2.68.62,2,2,0,0,1,.8,1.67,2,2,0,0,1-1.6,1.86v.1c.75.24,1.12.86,1.37,1.91a6.16,6.16,0,0,0,.58,1.9h-1.91a6,6,0,0,1-.63-1.9c-.15-.82-.62-1.2-1.62-1.2H688Zm0-4.38h.87c1,0,1.82-.34,1.82-1.15s-.53-1.19-1.68-1.19l-1,.11Z"/><path class="cls-2" d="M259.33,166.09h24q.36,7.09,5.29,10.59,5.3,3.54,14.13,3.54a22.75,22.75,0,0,0,10.94-2.47q4.24-2.46,4.23-6.71,0-6.35-14.82-9.54a67.73,67.73,0,0,1-9.53-2.11q-18.72-4.59-25.08-10.94-7.07-6.35-7.05-17a28.13,28.13,0,0,1,10.24-22.24q10.6-8.13,27.56-8.13,18.35,0,29.3,8.13,10.23,8.82,10.94,23H324.3a11.24,11.24,0,0,1-10.24-6l-2.82-2.82c-2.83-2.14-6.71-3.19-11.66-3.19-4.72,0-8.25.72-10.59,2.11a7.15,7.15,0,0,0-3.18,6.37q0,5.63,18.36,9.53a32.63,32.63,0,0,0,3.71,1.05,13.3,13.3,0,0,0,3,.36q18,4.6,25.08,10.6,6.69,6.35,6.71,16.95,0,15.53-11.3,24-10.6,7.77-31.78,7.77-20.12,0-30-8.13-10.26-8.13-10.24-23.66v-1.06"/><path class="cls-2" d="M350.26,103.25H363a12.06,12.06,0,0,1,12,12v81.92H350.26V103.25"/><path class="cls-2" d="M382.59,166.09h24q.36,7.09,5.29,10.59,5.31,3.54,14.12,3.54A22.74,22.74,0,0,0,437,177.75c2.84-1.64,4.23-3.88,4.23-6.71q0-6.35-14.82-9.54a67.73,67.73,0,0,1-9.53-2.11q-18.72-4.59-25.08-10.94-7.07-6.35-7.06-17a28.13,28.13,0,0,1,10.24-22.24q10.6-8.13,27.56-8.13,18.35,0,29.3,8.13,10.23,8.82,10.94,23H447.57a11.24,11.24,0,0,1-10.25-6l-2.83-2.82c-2.82-2.14-6.71-3.19-11.65-3.19-4.71,0-8.25.72-10.6,2.11a7.15,7.15,0,0,0-3.18,6.37q0,5.63,18.36,9.53a32.63,32.63,0,0,0,3.71,1.05,13.3,13.3,0,0,0,3,.36q18,4.6,25.08,10.6,6.69,6.35,6.71,16.95,0,15.53-11.3,24-10.59,7.77-31.78,7.77-20.13,0-30-8.13-10.26-8.13-10.24-23.66v-1.06"/><path class="cls-2" d="M474.59,75.71H487.3a11.86,11.86,0,0,1,8.47,3.36,11,11,0,0,1,3.54,8.28V197.17H474.59V75.71"/><path class="cls-2" d="M521.74,188.69q-7.43-6.35-10.59-17.11A79.06,79.06,0,0,1,508,149.14a71,71,0,0,1,2.66-19.07,39.28,39.28,0,0,1,8.3-15.89,36.65,36.65,0,0,1,23.66-12.53q14.49-1.94,26.12,2.29a36,36,0,0,1,19.79,18.36q6,11.66,6,27.2A67.61,67.61,0,0,1,592,168.93a49.54,49.54,0,0,1-6.36,13.76q-8.47,11.66-21.54,14.48a48,48,0,0,1-23.49.53c-7.88-1.77-14.18-4.76-18.88-9m16.95-62.14q-7.41,8.12-6.71,24.18t6,22.43c1.42,1.88,3.89,3.48,7.42,4.77a16.85,16.85,0,0,0,10.76.33q5.48-1.58,9.72-7.93t4.59-20.49c0-8.49-1.35-14.82-4.06-19.07s-5.83-6.94-9.36-8.13a17.18,17.18,0,0,0-10.58-.17Q541.15,124.08,538.69,126.55Z"/><path class="cls-2" d="M668.82,168.22h17.65q-3.9,14.84-14.83,22.59-10.95,8.12-27.54,8.13-20.12,0-31.43-13.07-11.3-12.72-11.3-36.37,0-22.6,10.95-35.32,11.3-13.05,31.43-13.06,21.17,0,32.83,12.72a48.67,48.67,0,0,1,9.19,18H661a20.75,20.75,0,0,0-3.53-5.31c-3.06-3.28-7.42-4.95-13.07-4.95a17.27,17.27,0,0,0-12.72,4.95q-6.34,7.07-6.35,23.31t6.35,22.95c3.07,3.77,7.65,5.66,13.78,5.66A20,20,0,0,0,655.75,176a5,5,0,0,0,2-1.24c.57-.6,1.23-1.22,1.93-1.95a15.93,15.93,0,0,1,2.83-2.82c1.42-1.16,3.53-1.76,6.35-1.76"/><path class="cls-1" d="M366.81,69.45h-8.36a8.21,8.21,0,0,0-8.17,8.17V87a8.19,8.19,0,0,0,8.17,8.14h8.36A8.18,8.18,0,0,0,375,87V77.62a8.21,8.21,0,0,0-8.16-8.17"/></svg>